<?xml version="1.0" standalone="no"?><!DOCTYPE svg PUBLIC "-//W3C//DTD SVG 1.1//EN" "http://www.w3.org/Graphics/SVG/1.1/DTD/svg11.dtd"><svg t="1581489675571" class="icon" viewBox="0 0 1024 1024" version="1.1" xmlns="http://www.w3.org/2000/svg" p-id="3801" xmlns:xlink="http://www.w3.org/1999/xlink" width="200" height="200"><defs><style type="text/css"></style></defs><path d="M778.4 351.7c76.9 68.5 125 166.2 125 274.6 0 75.4-23.3 145.7-63.4 204.5l0.6 0.3c-4.8 8.3-4.7 18.5 0.2 26.7 7.6 12.7 24.6 16.5 37.8 8.6 3-1.8 5.6-4.1 7.8-6.8l0.7 0.4c47.2-68.8 72.4-150.3 72.4-233.7 0-123.9-55-235.5-142.9-313.8l-38.2 39.2z m-152.1-84.2c-37.5-11-76.3-16.5-115.3-16.4-216.7 0-392.4 168-392.4 375.2 0 70.6 20.6 139.6 59.4 198.5 1.2 1.3 2.2 2.7 3.1 4.2 7.6 12.7 3.1 29.4-10.2 37.4-13.3 8-30.2 4.2-37.8-8.5-0.6-1-1.1-2-1.6-3.1-45-67.7-69-147.2-68.9-228.5 0-236.8 200.8-428.8 448.5-428.8 45.8 0 90.1 6.6 131.7 18.8l-16.5 51.2zM456.9 716.1c-57.5-33.2-34.6-72.7 6.1-125.2s332.1-439.1 332.1-439.1S608.7 561.3 565 643.6c-43.7 82.2-50 106.1-108.1 72.5z m0 0" p-id="3802"></path></svg>