<?xml version="1.0" standalone="no"?><!DOCTYPE svg PUBLIC "-//W3C//DTD SVG 1.1//EN" "http://www.w3.org/Graphics/SVG/1.1/DTD/svg11.dtd"><svg t="1581522818268" class="icon" viewBox="0 0 1024 1024" version="1.1" xmlns="http://www.w3.org/2000/svg" p-id="829" xmlns:xlink="http://www.w3.org/1999/xlink" width="200" height="200"><defs><style type="text/css"></style></defs><path d="M503.61730616 511.23398324a29.0004296 29.0004296 0 0 1-29.54387973-28.35817125V144.99857222C474.07342643 129.28794748 487.31382756 116.4921875 503.61730616 116.4921875c16.35288307 0 29.64268793 12.84516446 29.64268793 28.50638471v337.72902632a29.04983407 29.04983407 0 0 1-29.59328345 28.50638471zM494.72449916 906.96386953a384.21864143 384.21864143 0 0 1-267.27823703-106.812486A363.41935601 363.41935601 0 0 1 146.42291481 684.2484726a353.34084208 353.34084208 0 0 1 13.58623178-311.14941508A373.2508475 373.2508475 0 0 1 275.02277674 245.93192572a30.28494627 30.28494627 0 0 1 41.3021447 6.62019981 27.76531817 27.76531817 0 0 1-6.91662672 39.67179736 315.49700999 315.49700999 0 0 0-97.030399 107.40533984 294.20367891 294.20367891 0 0 0-36.50991093 142.58132961c0 82.20905502 33.19981027 159.47766205 93.47327666 217.57733023a322.7100644 322.7100644 0 0 0 225.48204668 90.11377225 322.90768158 322.90768158 0 0 0 225.48204746-90.06436777 300.18162114 300.18162114 0 0 0 93.37446769-217.62673471 293.95665647 293.95665647 0 0 0-36.41110197-142.58132961 315.20058307 315.20058307 0 0 0-97.17861246-107.30653086 27.76531817 27.76531817 0 0 1-7.2624589-39.12834801l0.49404488-0.59285385a30.23554178 30.23554178 0 0 1 41.25274098-6.6201998 372.75680262 372.75680262 0 0 1 114.96422567 127.1177273 352.99501067 352.99501067 0 0 1 13.63563626 311.14941508 362.92531114 362.92531114 0 0 1-81.02334732 115.95231542 378.43831793 378.43831793 0 0 1-120.15169609 78.15788704A388.91206776 388.91206776 0 0 1 494.72449916 906.96386953z" p-id="830"></path></svg>