<?xml version="1.0" standalone="no"?><!DOCTYPE svg PUBLIC "-//W3C//DTD SVG 1.1//EN" "http://www.w3.org/Graphics/SVG/1.1/DTD/svg11.dtd"><svg t="1581490143679" class="icon" viewBox="0 0 1024 1024" version="1.1" xmlns="http://www.w3.org/2000/svg" p-id="9071" xmlns:xlink="http://www.w3.org/1999/xlink" width="200" height="200"><defs><style type="text/css"></style></defs><path d="M36.813092 491.958822c0-20.29292-0.056444-40.644543 0-60.941979 0.22352-39.97624 27.228818-66.922836 67.037983-66.922836h122.554518c36.957589 0.056444 64.913413 25.828995 65.694605 62.786584 0.952783 43.274856 0.952783 86.547454 0 129.82231-0.781192 36.957589-28.737015 62.955918-65.581716 63.010105-41.317361 0.056444-82.578278 0.056444-123.895639 0-37.738781 0-65.358195-27.115929-65.805236-64.800524-0.173849-21.022183-0.004516-41.987922-0.004515-62.95366z m64.240594-63.739368v127.083624h126.916548v-127.083624H101.053686zM36.813092 811.427821c0-20.516441-0.110631-41.091583 0-61.610282 0.22352-39.362124 27.508783-66.310978 66.981538-66.310978h121.883958c38.576417 0 66.254534 26.951112 66.590943 65.473342 0.390596 41.484437 0.331894 83.023061 0 124.5662-0.336409 38.632862-27.901637 65.583973-66.421609 65.583973H102.620585c-37.85167 0-65.358195-27.003041-65.805236-64.74408-0.171591-20.970254-0.002258-41.99018-0.002257-62.958175z m191.100698 63.570034v-127.2507H101.107873v127.2507h126.805917zM659.930829 523.825119H423.487149c-16.323744 0-27.452339-6.818494-32.81908-19.84588-7.769019-18.897613 3.745656-39.922054 23.873758-43.385487 3.244429-0.559929 6.599489-0.729263 9.895847-0.729263 156.996942-0.051929 313.996141-0.051929 470.934381 0 19.513987 0 32.259151 9.731029 35.447135 26.894667 3.072838 16.493078-8.552468 33.435454-25.160692 36.343474-3.858545 0.67056-7.884165 0.722489-11.855599 0.722489H659.930829zM669.00936 843.35282c-130.22871 0-120.746037 0.056444-250.927335 0-15.535779 0-25.923822-8.945322-29.125353-24.937173-3.571807-17.780012 6.633356-35.948362 21.656619-38.463528 2.876411-0.503485 5.845391-0.562187 8.769215-0.562187h250.369663M659.930829 204.189045H422.816589c-16.495336 0-28.346419-7.827721-32.931969-21.525668-6.71012-20.015214 7.102974-40.479725 28.569939-42.211442 1.957495-0.167076 3.973692-0.112889 5.983115-0.112889h470.934381c19.513987 0 32.204964 9.728771 35.447135 26.894667 3.244429 17.274269-9.674584 34.72013-27.118187 36.621181-3.075095 0.334151-6.150191 0.334151-9.279473 0.334151-78.16432 0.054187-156.328639 0-234.490701 0zM133.25865 190.545285c12.580346-12.690977 24.991359-25.212622 37.458817-37.736524l96.949043-96.949043c14.312063-14.255619 34.04957-14.982623 47.131143-1.842348 12.916755 13.027387 12.300382 32.649747-1.67753 46.68636a208554.194791 208554.194791 0 0 1-156.43927 156.434755c-14.702659 14.704917-33.379009 14.704917-48.081668 0.112889a12575.185012 12575.185012 0 0 1-61.445464-61.278388c-13.476685-13.472169-13.810836-33.376751-0.952783-46.126431 12.9732-12.970942 32.315595-12.580346 46.128689 1.063414 13.079316 12.860311 25.996071 25.831253 38.967013 38.745751 0.282222 0.275449 0.785707 0.331894 1.96201 0.889565zM854.66881 728.081897c-33.381267 0-60.531063 27.140765-60.531063 60.508486 0 33.365463 27.147538 60.519774 60.531063 60.519774 33.376751 0 60.515259-27.152054 60.515259-60.519774 0-33.369978-27.138507-60.508485-60.515259-60.508486z m0 101.035624c-22.354273 0-40.527139-18.177381-40.527139-40.527138s18.18867-40.524881 40.527139-40.524881c22.336211 0 40.524881 18.175123 40.524881 40.524881s-18.177381 40.527139-40.524881 40.527138z m128.250896-85.490813h-5.847649l-0.460587-1.214685-1.630117 0.706685 1.415628-1.16953a127.411002 127.411002 0 0 0-2.912535-7.039756l-0.471876-1.049867 4.143025-4.152056c7.759987-7.750956 12.040737-18.069008 12.040737-29.0373s-4.269461-21.290859-12.040737-29.048589l-5.486404-5.497692a40.825165 40.825165 0 0 0-29.064393-12.031706 40.807103 40.807103 0 0 0-29.046331 12.031706l-4.143025 4.152056-1.047609-0.474134a125.480601 125.480601 0 0 0-7.642583-3.124766l-1.076961-0.415432v-5.897319c0-22.656815-18.43251-41.078037-41.089325-41.078037h-7.771277c-22.656815 0-41.093841 18.434768-41.093841 41.078037v5.897319l-1.072445 0.404143c-2.8877 1.083734-5.393835 2.122313-7.644841 3.136055l-1.061156 0.460587-4.140767-4.138509a40.811619 40.811619 0 0 0-29.048589-12.031706 40.804845 40.804845 0 0 0-29.050846 12.031706l-5.506724 5.497692a40.789041 40.789041 0 0 0-12.031706 29.048589c0 10.968292 4.271718 21.288601 12.042995 29.050846l4.140767 4.147541-0.474134 1.040836a138.460574 138.460574 0 0 0-2.923824 7.066849l-0.661529 1.648179h-5.861195c-22.656815 0-41.091583 18.437026-41.091584 41.080295V792.480537c0 22.656815 18.434768 41.082552 41.091584 41.082552h5.852164l0.659271 1.670757a123.240883 123.240883 0 0 0 2.914793 7.05556l0.469619 1.036321-4.13851 4.152056a40.798072 40.798072 0 0 0-12.031706 29.048588 40.798072 40.798072 0 0 0 12.031706 29.050847l5.497693 5.497692a40.816134 40.816134 0 0 0 29.050846 12.029448c10.966034 0 21.286343-4.271718 29.048589-12.029448l4.152056-4.140767 1.049867 0.474134a128.377331 128.377331 0 0 0 7.644841 3.124766l1.070187 0.413174v5.883773c0 22.656815 18.437026 41.080294 41.091584 41.080294h7.771276c22.659073 0 41.096099-18.434768 41.096099-41.080294v-5.883773l1.072445-0.413174a122.647087 122.647087 0 0 0 7.642583-3.124766l1.036321-0.474134 4.152056 4.140767a40.809361 40.809361 0 0 0 29.050846 12.029448c10.979581 0 21.29989-4.271718 29.062135-12.029448l5.497693-5.497692a40.793557 40.793557 0 0 0 12.040737-29.050847c0-10.977323-4.269461-21.302148-12.040737-29.048588l-4.138509-4.152056 0.469618-1.049868c0.94601-2.074899 1.887504-4.386865 2.923824-7.064591l-1.648179-0.636694 1.92137 0.022578 0.390596-1.034063h5.849906c22.656815 0 41.091583-18.439284 41.091584-41.082552v-7.771277c0.009031-22.645526-18.423479-41.082552-41.08481-41.082552z m20.171 30.475505z m-49.149598-98.696565z m-247.520345 127.995767z m34.900752 84.190333z m98.188565 49.043482z m29.712375 0.316089zM1004.020911 792.480537c0 1.345636-0.14224 2.722882-0.424463 4.115931-0.094827 0.483165-0.234809 0.885049-0.343182 1.225974l-0.246098 0.826348a14.461076 14.461076 0 0 1-0.566703 1.781388c-0.270934 0.661529-0.602827 1.237263-1.049867 2.061352l-0.212231 0.401885a13.375085 13.375085 0 0 1-0.530578 0.946009 22.225579 22.225579 0 0 1-1.968784 2.535486c-0.08128 0.106116-0.2032 0.257387-0.352213 0.424463-0.717974 0.767645-1.546579 1.508197-2.7861 2.479042a21.083143 21.083143 0 0 1-10.695101 4.104642 6.46628 6.46628 0 0 0-0.623147 0.067734c-0.354471 0.047413-0.792481 0.108373-1.286934 0.108373h-20.71061l-0.329635 1.343379c-2.594188 10.487385-6.960734 20.807694-12.9732 30.678705l-0.729263 1.192108 14.835868 14.835867c3.219593 3.217336 5.258368 7.371649 5.933444 12.311671a20.387747 20.387747 0 0 1 0.176107 3.361833c-0.013547 0.248356-0.036124 0.458329-0.072249 0.848925a19.066946 19.066946 0 0 1-0.377049 2.901247c-0.08128 0.377049-0.200942 0.706685-0.284481 0.977618l-0.255129 0.896339c-0.164818 0.544125-0.34544 1.158241-0.625405 1.831059-0.246098 0.611858-0.555414 1.131147-1.027289 1.968783l-0.268676 0.496712c-0.14224 0.282222-0.320605 0.647983-0.566703 1.013743a22.282024 22.282024 0 0 1-2.619023 3.208304l-5.508982 5.497693a21.611464 21.611464 0 0 1-3.219593 2.628055c-0.36576 0.246098-0.706685 0.413174-0.979877 0.555413l-0.494453 0.257387 0.871503 1.53529-1.309512-1.284676c-0.458329 0.257387-0.977618 0.555414-1.578188 0.799254a13.305093 13.305093 0 0 1-1.756552 0.593796l0.496711 1.695592-1.025032-1.546579-0.435751 0.14224a7.301658 7.301658 0 0 1-0.957299 0.259645 19.179835 19.179835 0 0 1-2.817708 0.38608l-1.61657 0.094827c-0.824089 0-1.722686-0.067733-3.020909-0.22352-4.621674-0.645725-8.764699-2.689015-11.984292-5.895062l-14.81329-14.824579-1.192108 0.729263c-9.893589 6.037302-20.216156 10.417394-30.703541 12.998035l-1.343378 0.329636v20.663196c0 0.517031-0.058702 0.979876-0.106116 1.307254l-0.069991 0.568961c-0.354471 3.92402-1.770099 7.631294-4.292039 10.977323-0.767645 0.991165-1.510454 1.81977-2.300677 2.549032-0.164818 0.151271-0.309316 0.270934-0.623147 0.510259-0.697654 0.598312-1.47433 1.237263-2.336801 1.801707-0.329636 0.212231-0.65024 0.377049-1.011486 0.568961l-0.544124 0.282222a18.692155 18.692155 0 0 1-1.876215 0.955041 20.952192 20.952192 0 0 1-2.158437 0.672818l-0.496711 0.151271a7.154903 7.154903 0 0 1-1.153726 0.318347 21.193774 21.193774 0 0 1-4.129478 0.417689h-7.771276a21.051534 21.051534 0 0 1-4.127221-0.417689c-0.449298-0.092569-0.826347-0.22352-1.228232-0.352213l-0.837636-0.243841a16.249238 16.249238 0 0 1-1.765583-0.566702c-0.697654-0.295769-1.31177-0.638952-2.124571-1.083734l-0.401884-0.214489a6.086973 6.086973 0 0 1-0.871503-0.494454 21.387943 21.387943 0 0 1-2.512909-1.948463c-0.117405-0.092569-0.282222-0.209973-0.483164-0.401885a22.151073 22.151073 0 0 1-2.490331-2.804162 20.997348 20.997348 0 0 1-4.082065-10.66575l-0.072249-0.600569c-0.045156-0.354471-0.117405-0.801512-0.117404-1.309512v-20.649649l-1.343379-0.329636c-10.487385-2.596446-20.818983-6.969765-30.701283-12.998036l-1.18985-0.733778-14.79297 14.849415c-3.221851 3.210562-7.358103 5.249337-12.277804 5.933444-1.002454 0.119662-1.887504 0.191911-2.71385 0.191911l-1.508197-0.083538a21.175712 21.175712 0 0 1-2.937371-0.404142c-0.363502-0.069991-0.684107-0.173849-0.943752-0.257387l-0.517031-0.153529-0.485423 1.700108v-1.840091c-0.517031-0.151271-1.106312-0.318347-1.731716-0.58928-0.614116-0.246098-1.158241-0.566703-2.007166-1.049867l-0.517032-0.270934a11.446941 11.446941 0 0 1-0.979876-0.541867 22.48974 22.48974 0 0 1-3.208304-2.616766l-5.497693-5.499951a21.358592 21.358592 0 0 1-2.619024-3.230882c-0.246098-0.36576-0.424463-0.73152-0.67056-1.201138l-0.368018-0.66153c-0.270934-0.485423-0.577992-1.013743-0.846668-1.663983a15.059388 15.059388 0 0 1-0.602827-1.790419l-0.282222-0.968587c-0.083538-0.246098-0.189653-0.555414-0.261903-0.896339-0.22352-1.000196-0.3048-2.004908-0.424462-3.278295l-0.038382-0.471876c-0.036124-1.02729 0.013547-2.120055 0.214489-3.727594 0.65024-4.612643 2.689015-8.751153 5.897319-11.959457l14.835868-14.835868-0.729263-1.189849c-6.014724-9.873269-10.379011-20.193578-12.986746-30.676448l-0.329636-1.350152h-20.699321c-0.505743 0-0.957298-0.056444-1.345636-0.117404l-0.234809 1.745263-0.295769-1.815254c-3.937567-0.354471-7.651614-1.770099-10.99087-4.292039a21.234414 21.234414 0 0 1-2.512908-2.255521 7.47325 7.47325 0 0 1-0.539609-0.672819 21.191517 21.191517 0 0 1-1.806224-2.343575c-0.198685-0.295769-0.340925-0.580249-0.471876-0.815058l-1.61657 0.720232 1.39305-1.155983-0.214489-0.392854c-0.282222-0.517031-0.611858-1.092765-0.896338-1.781388a18.206732 18.206732 0 0 1-0.670561-2.142632l-0.155787-0.496712c-0.1016-0.320605-0.234809-0.717974-0.327378-1.192107a21.049276 21.049276 0 0 1-0.42672-4.115932v-7.771276c0-1.379503 0.14224-2.749975 0.42672-4.115932 0.092569-0.485423 0.234809-0.882792 0.340925-1.225974l0.257387-0.862472c0.14224-0.517031 0.307058-1.119859 0.553156-1.733974 0.273191-0.659272 0.58928-1.225974 1.063414-2.088446l0.214489-0.413174c0.130951-0.248356 0.293511-0.580249 0.517031-0.930205 0.56896-0.887307 1.203396-1.627859 1.99362-2.582899 0.069991-0.097085 0.178365-0.230293 0.329635-0.392854 0.717974-0.778934 1.548837-1.519485 2.774811-2.474526a20.949934 20.949934 0 0 1 10.731225-4.095612l0.580249-0.069991c0.352214-0.047413 0.799254-0.119662 1.307255-0.119662h20.712867l0.329636-1.343379c2.591931-10.496416 6.956218-20.805436 12.9732-30.676447l0.729262-1.192108-14.81329-14.754588c-3.208304-3.208304-5.247079-7.346814-5.933444-12.336506a19.859427 19.859427 0 0 1-0.178364-3.350544l0.072249-0.82409c0.083538-0.918916 0.164818-1.912339 0.388338-2.935113 0.072249-0.36576 0.191911-0.697654 0.261902-0.957298l0.3048-1.025032c0.151271-0.508 0.318347-1.083734 0.566703-1.675272 0.257387-0.611858 0.566703-1.16953 0.848925-1.641406l0.22352-0.413173-1.533032-0.837637 1.794934 0.388339c0.14224-0.279965 0.318347-0.634436 0.564445-1.013743 0.767645-1.167272 1.650437-2.239717 2.619024-3.206047l5.484146-5.495435c0.982134-0.957298 2.052321-1.842348 3.221851-2.634828 0.363502-0.234809 0.717974-0.410916 1.072445-0.598312l0.792481-0.435751c0.483165-0.259645 1.025032-0.566703 1.641406-0.826347 0.634436-0.273191 1.239521-0.44704 1.720427-0.591539l1.065672-0.316089c0.24384-0.072249 0.539609-0.178365 0.916659-0.248355 1.038578-0.237067 2.077157-0.320605 3.136055-0.404143 0.155787-0.009031 0.329636-0.036124 0.593796-0.045156l0.625405-0.013546c0.848925 0 1.731717 0.056444 3.097673 0.22352 4.612643 0.652498 8.755668 2.691273 11.961715 5.897319l14.815548 14.826837 1.189849-0.733778c9.859722-6.026013 20.19132-10.399331 30.703541-12.995778l1.343379-0.329636v-20.674485c0-0.517031 0.056444-0.982134 0.106116-1.323058l0.069991-0.550898c0.354471-3.928536 1.770099-7.633552 4.292038-10.981839 0.767645-0.979876 1.512712-1.817512 2.305193-2.549033 0.173849-0.160302 0.329636-0.279965 0.611858-0.508 0.706685-0.600569 1.47433-1.25081 2.357122-1.801708 0.322862-0.214489 0.623147-0.368018 1.049867-0.591538l0.449298-0.234809c0.555414-0.309316 1.192107-0.672818 1.912339-0.968588a13.29832 13.29832 0 0 1 1.767841-0.566702l0.896339-0.268676c0.309316-0.108373 0.695396-0.234809 1.155983-0.320605a21.017668 21.017668 0 0 1 4.115931-0.413173h7.771277a20.658681 20.658681 0 0 1 4.140767 0.424462c0.435751 0.08128 0.799254 0.212231 1.212427 0.338667l0.826348 0.248356c0.530578 0.14224 1.131147 0.309316 1.770099 0.566702 0.706685 0.28448 1.318543 0.636694 2.108766 1.074703l0.544124 0.270934c0.225778 0.117405 0.483165 0.246098 0.740552 0.424462 0.889565 0.575734 1.666241 1.214685 2.537744 1.957495 0.108373 0.094827 0.273191 0.212231 0.462845 0.388338 0.776676 0.73152 1.530774 1.557868 2.485815 2.795131 2.323255 3.088642 3.729851 6.795916 4.1069 10.803474l0.056445 0.517031c0.047413 0.352214 0.106116 0.778934 0.106115 1.27113v20.651907l1.343379 0.329636c10.500932 2.596446 20.83253 6.972022 30.703541 13.000293l1.192107 0.727005 14.824579-14.820063c3.206047-3.197015 7.349072-5.23579 12.38392-5.924413a19.471089 19.471089 0 0 1 2.677726-0.187396l0.625405 0.013547c0.234809 0 0.433494 0.036124 0.857956 0.08128 0.790223 0.056444 1.831059 0.153529 2.878669 0.377049 0.379307 0.08128 0.706685 0.189653 1.393049 0.404143l0.517032 0.149013c0.52832 0.153529 1.142436 0.329636 1.77913 0.605085 0.638952 0.257387 1.180819 0.577992 2.007166 1.04761l0.564445 0.295769c0.259645 0.14224 0.591538 0.295769 0.943751 0.530578 1.158241 0.778934 2.228428 1.661726 3.197016 2.607735l5.497693 5.504466c0.943752 0.955041 1.828801 2.027486 2.607735 3.194758 0.246098 0.368018 0.424463 0.733778 0.659271 1.192107l0.388338 0.697654c0.259645 0.480907 0.580249 1.013743 0.826347 1.627859 0.270934 0.647983 0.460587 1.262099 0.611859 1.828801l0.28448 0.941494c0.08128 0.250614 0.178365 0.557671 0.259644 0.898596 0.234809 1.038578 0.316089 2.050064 0.410916 3.158633 0.015804 0.155787 0.038382 0.36576 0.049671 0.58025 0.036124 1.038578-0.013547 2.156179-0.200942 3.727593-0.65024 4.608128-2.689015 8.748895-5.897319 11.982035l-14.838126 14.822321 0.733778 1.18985c6.014724 9.875527 10.376754 20.193578 12.9732 30.680963l0.329636 1.345636h20.710609c0.505743 0 0.955041 0.056444 1.307255 0.115147l0.577991 0.072249c3.928536 0.354471 7.644841 1.770099 10.995385 4.292039 0.977618 0.756356 1.790419 1.496908 2.555807 2.311966 0.133209 0.130951 0.228036 0.257387 0.510258 0.625405 0.600569 0.697654 1.225974 1.438205 1.792676 2.320997 0.214489 0.320605 0.36576 0.634436 0.697654 1.273387l0.22352 0.399627c0.28448 0.510258 0.602827 1.083734 0.876019 1.73849 0.234809 0.587023 0.388338 1.155983 0.52832 1.659468l0.282223 0.932463c0.108373 0.329636 0.246098 0.740552 0.343182 1.228232 0.268676 1.377245 0.424463 2.772553 0.424463 4.115931V792.480537h-0.045156z" p-id="9072"></path></svg>