<?xml version="1.0" standalone="no"?><!DOCTYPE svg PUBLIC "-//W3C//DTD SVG 1.1//EN" "http://www.w3.org/Graphics/SVG/1.1/DTD/svg11.dtd"><svg t="1581518495581" class="icon" viewBox="0 0 1024 1024" version="1.1" xmlns="http://www.w3.org/2000/svg" p-id="5077" xmlns:xlink="http://www.w3.org/1999/xlink" width="200" height="200"><defs><style type="text/css"></style></defs><path d="M83.2 222.4h856c19.2 0 36.8-19.2 36.8-36.8 0-19.2-19.2-36.8-36.8-36.8h-856c-19.2 0-36.8 19.2-36.8 36.8 0 17.6 19.2 36.8 36.8 36.8zM936 473.6H353.6c-19.2 0-36.8 19.2-36.8 36.8 0 19.2 19.2 36.8 36.8 36.8H936c19.2 0 36.8-19.2 36.8-36.8 0-17.6-14.4-36.8-36.8-36.8z m4.8 328H89.6c-19.2 0-36.8 19.2-36.8 36.8 0 19.2 19.2 36.8 36.8 36.8h851.2c19.2 0 36.8-19.2 36.8-36.8 0-19.2-19.2-36.8-36.8-36.8zM249.6 347.2L46.4 502.4l200 158.4z" p-id="5078"></path></svg>